<svg xmlns="http://www.w3.org/2000/svg" version="1.1" xmlns:xlink="http://www.w3.org/1999/xlink" xmlns:svgjs="http://svgjs.dev/svgjs" width="2000" height="232" viewBox="0 0 2000 232"><g transform="matrix(1,0,0,1,-1.2121212002513175,0.2614866250514467)"><svg viewBox="0 0 396 46" data-background-color="#50a060" preserveAspectRatio="xMidYMid meet" height="232" width="2000" xmlns="http://www.w3.org/2000/svg" xmlns:xlink="http://www.w3.org/1999/xlink"><g id="tight-bounds" transform="matrix(1,0,0,1,0.2400000023502571,-0.051846486001579706)"><svg viewBox="0 0 395.52 46.1036889601247" height="46.1036889601247" width="395.52"><g><svg viewBox="0 0 461.27668264436204 53.76860007381123" height="46.1036889601247" width="395.52"><g><rect width="3.508616384841948" height="46.68764116394607" x="53.06320661333699" y="3.54047945493258" fill="#000000" opacity="1" stroke-width="0" stroke="transparent" fill-opacity="1" class="rect-o-0" data-fill-palette-color="primary" rx="1%" id="o-0" data-palette-color="#096a2e"></rect></g><g transform="matrix(1,0,0,1,65.75668264436204,7.431116218594752)"><svg viewBox="0 0 395.52 38.906367636621724" height="38.906367636621724" width="395.52"><g id="textblocktransform"><svg viewBox="0 0 395.52 38.906367636621724" height="38.906367636621724" width="395.52" id="textblock"><g><svg viewBox="0 0 395.52 38.906367636621724" height="38.906367636621724" width="395.52"><g transform="matrix(1,0,0,1,0,0)"><svg width="395.52" viewBox="2.549999952316284 -34.04999923706055 352.2300109863281 34.64999771118164" height="38.906367636621724" data-palette-color="#096a2e"><path d="M17.4 0.3Q13.2 0.3 9.85-1.25 6.5-2.8 4.53-5.83 2.55-8.85 2.55-13.15L2.55-13.15Q2.55-16.15 3.6-19.65L3.6-19.65Q5.9-27.15 10.55-30.48 15.2-33.8 20.5-33.8L20.5-33.8Q23.35-33.8 25.55-32.95 27.75-32.1 29.6-30.5L29.6-30.5 30.95-31.55Q32.3-32.6 33.23-33 34.15-33.4 35.3-33.4L35.3-33.4Q36.55-33.4 37.3-32.85 38.05-32.3 38.05-31.25L38.05-31.25Q38.05-30.7 37.85-30.15L37.85-30.15 35.05-22.35Q34.6-21 33.98-20.45 33.35-19.9 32.1-19.9L32.1-19.9Q30.8-19.9 29.98-20.83 29.15-21.75 28.1-24L28.1-24Q26.9-26.35 26.15-27.1 25.4-27.85 23.95-27.85L23.95-27.85Q21.9-27.85 20-25.33 18.1-22.8 16.55-17.75L16.55-17.75Q15.25-13.5 15.25-10.65L15.25-10.65Q15.25-8.15 16.2-6.93 17.15-5.7 18.75-5.7L18.75-5.7Q21.1-5.7 22.63-6.75 24.15-7.8 25.75-9.6L25.75-9.6Q26.75-10.7 27.38-11.23 28-11.75 28.7-11.75L28.7-11.75Q29.6-11.75 30.6-10.85 31.6-9.95 31.55-9.05L31.55-9.05Q31.6-7.95 29.78-5.65 27.95-3.35 24.73-1.53 21.5 0.3 17.4 0.3L17.4 0.3ZM57.95-34.05Q64.25-34.05 67.8-31.08 71.35-28.1 71.35-22.5L71.35-22.5Q71.35-19.85 70.55-16.8L70.55-16.8Q69.05-11.2 65.9-7.3 62.75-3.4 58.4-1.4 54.05 0.6 48.95 0.6L48.95 0.6Q42.7 0.6 39.15-2.38 35.6-5.35 35.6-10.95L35.6-10.95Q35.6-13.5 36.45-16.8L36.45-16.8Q37.9-22.35 41.02-26.23 44.15-30.1 48.47-32.08 52.8-34.05 57.95-34.05L57.95-34.05ZM57.05-29.15Q55.55-29.15 54.35-27.95 53.15-26.75 51.97-24.03 50.8-21.3 49.45-16.45L49.45-16.45Q47.45-9.45 47.45-6.8L47.45-6.8Q47.45-5.25 48-4.55 48.55-3.85 49.75-3.85L49.75-3.85Q51.25-3.85 52.45-5.08 53.65-6.3 54.8-9 55.95-11.7 57.35-16.45L57.35-16.45Q59.3-23.35 59.3-26.15L59.3-26.15Q59.3-27.75 58.75-28.45 58.2-29.15 57.05-29.15L57.05-29.15ZM92.2-33.3Q99.7-33.3 103.5-30.43 107.3-27.55 107.3-22L107.3-22Q107.3-19.25 106.3-15.65L106.3-15.65Q104.65-9.85 101.84-6.45 99.05-3.05 94.47-1.5 89.9 0.05 82.75 0L82.75 0 69.15-0.05Q68.09-0.05 67.52-0.4 66.95-0.75 66.95-1.35L66.95-1.35Q66.95-1.65 67.09-2L67.09-2Q67.25-2.45 67.52-2.65 67.8-2.85 68.34-3.2L68.34-3.2Q69.15-3.65 69.62-4.2 70.09-4.75 70.45-5.95L70.45-5.95 76.55-27.45Q76.75-28.1 76.75-28.7L76.75-28.7Q76.75-29.25 76.57-29.63 76.4-30 76.09-30.5L76.09-30.5Q75.65-31.15 75.65-31.55L75.65-31.55Q75.65-31.7 75.75-32.1L75.75-32.1Q75.95-32.75 76.62-33.02 77.3-33.3 78.7-33.3L78.7-33.3 92.2-33.3ZM93.5-16.75Q94.8-21.45 94.8-24.15L94.8-24.15Q94.8-26.8 93.7-27.8 92.59-28.8 90.55-28.8L90.55-28.8 89.45-28.8 82.7-4.5 83.9-4.5Q86.2-4.5 87.77-5.48 89.34-6.45 90.7-9.08 92.05-11.7 93.5-16.75L93.5-16.75ZM138.49-33.3Q140.34-33.3 141.37-32.5 142.39-31.7 142.39-30.3L142.39-30.3Q142.39-29.6 142.19-28.95L142.19-28.95 140.89-24.3Q140.54-22.95 139.87-22.43 139.19-21.9 137.94-21.9L137.94-21.9Q136.74-21.9 136.07-22.43 135.39-22.95 135.04-24.15L135.04-24.15 134.24-27Q133.99-27.9 133.64-28.2 133.29-28.5 132.29-28.5L132.29-28.5 127.04-28.5 124.54-19.6 126.74-19.6Q127.09-19.6 127.69-20.1L127.69-20.1 129.39-21.6Q130.14-22.25 130.69-22.55 131.24-22.85 132.04-22.85L132.04-22.85Q132.94-22.85 133.52-22.38 134.09-21.9 134.09-21.15L134.09-21.15Q134.09-20.95 133.99-20.55L133.99-20.55 131.94-13.6Q131.64-12.5 130.92-11.98 130.19-11.45 129.34-11.45L129.34-11.45Q127.94-11.45 127.24-12.9L127.24-12.9 126.39-14.65Q126.04-15.4 125.29-15.4L125.29-15.4 123.34-15.4 120.39-4.8 124.79-4.8Q125.74-4.8 126.47-5.18 127.19-5.55 128.04-6.5L128.04-6.5 131.04-9.8Q131.84-10.65 132.57-11.03 133.29-11.4 134.34-11.4L134.34-11.4Q135.44-11.4 136.14-10.9 136.84-10.4 136.84-9.4L136.84-9.4Q136.84-9 136.69-8.45L136.69-8.45 135.24-3.4Q134.69-1.5 133.64-0.75 132.59 0 130.59 0L130.59 0 106.74 0Q105.69 0 105.12-0.35 104.54-0.7 104.54-1.3L104.54-1.3Q104.54-1.6 104.69-1.95L104.69-1.95Q104.89-2.5 105.34-2.8 105.79-3.1 105.89-3.15L105.89-3.15Q106.69-3.65 107.19-4.17 107.69-4.7 108.04-5.9L108.04-5.9 114.19-27.45Q114.39-28.1 114.39-28.65L114.39-28.65Q114.39-29.25 114.22-29.65 114.04-30.05 113.69-30.5L113.69-30.5Q113.24-31.15 113.24-31.55L113.24-31.55Q113.24-31.7 113.34-32.1L113.34-32.1Q113.54-32.75 114.24-33.02 114.94-33.3 116.29-33.3L116.29-33.3 138.49-33.3ZM177.59-23.15Q176.79-20.25 174.59-18.63 172.39-17 169.04-16.6L169.04-16.6Q171.44-16.4 172.64-15.2 173.84-14 173.84-12.05L173.84-12.05Q173.84-11.3 173.59-10.2L173.59-10.2 173.04-7.75Q172.94-7.25 172.94-7.05L172.94-7.05Q172.94-6.4 173.24-6.08 173.54-5.75 174.09-5.75L174.09-5.75Q175.14-5.75 175.62-5.45 176.09-5.15 175.94-4.35L175.94-4.35Q175.74-3.2 174.74-2.1 173.74-1 171.92-0.28 170.09 0.45 167.49 0.45L167.49 0.45Q164.19 0.45 162.24-1.03 160.29-2.5 160.29-5.25L160.29-5.25Q160.29-6.3 160.59-7.5L160.59-7.5 161.39-10.7Q161.59-11.35 161.59-12.05L161.59-12.05Q161.59-13.2 160.82-13.7 160.04-14.2 158.34-14.2L158.34-14.2 156.44-14.2 154.14-5.9Q154.04-5.6 154.04-5.15L154.04-5.15Q154.04-4.45 154.39-3.95 154.74-3.45 155.34-2.9L155.34-2.9Q155.79-2.55 156.04-2.23 156.29-1.9 156.29-1.55L156.29-1.55Q156.29-0.7 155.49-0.35 154.69 0 153.14 0L153.14 0 140.59 0Q139.29 0 138.64-0.48 137.99-0.95 138.19-1.8L138.19-1.8Q138.29-2.25 138.57-2.53 138.84-2.8 139.39-3.15L139.39-3.15Q140.24-3.65 140.74-4.2 141.24-4.75 141.54-5.9L141.54-5.9 147.64-27.45Q147.84-28.1 147.84-28.7L147.84-28.7Q147.84-29.25 147.67-29.63 147.49-30 147.19-30.5L147.19-30.5Q146.74-31.15 146.74-31.55L146.74-31.55Q146.74-31.7 146.84-32.1L146.84-32.1Q147.04-32.75 147.72-33.02 148.39-33.3 149.79-33.3L149.79-33.3 166.54-33.3Q169.99-33.3 172.57-32.25 175.14-31.2 176.52-29.38 177.89-27.55 177.89-25.25L177.89-25.25Q177.89-24.2 177.59-23.15L177.59-23.15ZM164.79-23.65Q165.04-24.8 165.04-25.4L165.04-25.4Q165.04-28.05 162.14-28.05L162.14-28.05 160.04-28.05 157.84-19.2 159.94-19.2Q161.89-19.2 163.02-20.15 164.14-21.1 164.79-23.65L164.79-23.65ZM196.54-33.6Q199.34-33.6 201.71-32.93 204.09-32.25 206.54-30.8L206.54-30.8 207.69-31.75Q208.89-32.7 209.66-33.05 210.44-33.4 211.44-33.4L211.44-33.4Q212.64-33.4 213.34-32.88 214.04-32.35 214.04-31.35L214.04-31.35Q214.04-30.95 213.89-30.5L213.89-30.5 211.79-23.6Q211.44-22.4 210.91-21.9 210.39-21.4 209.34-21.4L209.34-21.4Q208.24-21.4 207.41-22.08 206.59-22.75 204.84-24.85L204.84-24.85Q203.09-26.85 201.66-27.68 200.24-28.5 198.74-28.5L198.74-28.5Q197.64-28.5 196.89-27.78 196.14-27.05 196.14-26L196.14-26Q196.14-24.8 197.34-23.78 198.54-22.75 201.09-21.2L201.09-21.2Q203.69-19.65 205.39-18.4 207.09-17.15 208.29-15.3 209.49-13.45 209.49-11.05L209.49-11.05Q209.49-9.5 208.99-7.95L208.99-7.95Q207.79-3.95 204.34-1.88 200.89 0.2 196.29 0.2L196.29 0.2Q192.84 0.2 190.49-0.6 188.14-1.4 185.69-3.3L185.69-3.3 183.89-1.8Q182.64-0.75 181.84-0.38 181.04 0 180.04 0L180.04 0Q178.89 0 178.21-0.55 177.54-1.1 177.54-2.05L177.54-2.05Q177.54-2.55 177.74-3.1L177.74-3.1 180.19-10.55Q180.59-11.85 181.29-12.4 181.99-12.95 183.09-12.95L183.09-12.95Q184.24-12.95 185.16-12.15 186.09-11.35 187.59-9.25L187.59-9.25Q189.19-6.95 190.56-6.05 191.94-5.15 193.84-5.15L193.84-5.15Q195.19-5.15 195.91-5.58 196.64-6 196.94-6.95L196.94-6.95Q197.04-7.2 197.04-7.7L197.04-7.7Q197.04-8.9 195.89-9.9 194.74-10.9 192.34-12.3L192.34-12.3Q189.79-13.85 188.19-15.08 186.59-16.3 185.41-18.15 184.24-20 184.24-22.5L184.24-22.5Q184.24-24.25 184.79-25.95L184.79-25.95Q185.84-29.4 189.09-31.5 192.34-33.6 196.54-33.6L196.54-33.6ZM228.69 0.3Q224.49 0.3 221.14-1.25 217.79-2.8 215.81-5.83 213.84-8.85 213.84-13.15L213.84-13.15Q213.84-16.15 214.89-19.65L214.89-19.65Q217.19-27.15 221.84-30.48 226.49-33.8 231.79-33.8L231.79-33.8Q234.64-33.8 236.84-32.95 239.04-32.1 240.89-30.5L240.89-30.5 242.24-31.55Q243.59-32.6 244.51-33 245.44-33.4 246.59-33.4L246.59-33.4Q247.84-33.4 248.59-32.85 249.34-32.3 249.34-31.25L249.34-31.25Q249.34-30.7 249.14-30.15L249.14-30.15 246.34-22.35Q245.89-21 245.26-20.45 244.64-19.9 243.39-19.9L243.39-19.9Q242.09-19.9 241.26-20.83 240.44-21.75 239.39-24L239.39-24Q238.19-26.35 237.44-27.1 236.69-27.85 235.24-27.85L235.24-27.85Q233.19-27.85 231.29-25.33 229.39-22.8 227.84-17.75L227.84-17.75Q226.54-13.5 226.54-10.65L226.54-10.65Q226.54-8.15 227.49-6.93 228.44-5.7 230.04-5.7L230.04-5.7Q232.39-5.7 233.91-6.75 235.44-7.8 237.04-9.6L237.04-9.6Q238.04-10.7 238.66-11.23 239.29-11.75 239.99-11.75L239.99-11.75Q240.89-11.75 241.89-10.85 242.89-9.95 242.84-9.05L242.84-9.05Q242.89-7.95 241.06-5.65 239.24-3.35 236.01-1.53 232.79 0.3 228.69 0.3L228.69 0.3ZM274.03-12.9Q275.43-12.9 276.16-12.33 276.88-11.75 276.88-10.7L276.88-10.7Q276.88-10.25 276.73-9.7L276.73-9.7 275.08-3.85Q274.43-1.7 273.26-0.85 272.08 0 269.78 0L269.78 0 246.28 0Q245.23 0 244.66-0.35 244.08-0.7 244.08-1.3L244.08-1.3Q244.08-1.6 244.23-1.95L244.23-1.95Q244.38-2.35 244.73-2.63 245.08-2.9 245.48-3.15L245.48-3.15Q246.28-3.65 246.78-4.17 247.28-4.7 247.63-5.9L247.63-5.9 253.73-27.45Q253.93-28.1 253.93-28.7L253.93-28.7Q253.93-29.25 253.76-29.63 253.58-30 253.28-30.5L253.28-30.5Q252.83-31.15 252.83-31.55L252.83-31.55Q252.83-31.7 252.93-32.1L252.93-32.1Q253.13-32.75 253.81-33.02 254.48-33.3 255.88-33.3L255.88-33.3 267.63-33.3Q268.68-33.3 269.26-32.98 269.83-32.65 269.83-32.05L269.83-32.05Q269.83-31.8 269.68-31.4L269.68-31.4Q269.53-31.05 269.26-30.78 268.98-30.5 268.76-30.38 268.53-30.25 268.43-30.15L268.43-30.15Q267.63-29.7 267.13-29.15 266.63-28.6 266.28-27.45L266.28-27.45 259.83-4.8 262.93-4.8Q264.08-4.8 264.91-5.2 265.73-5.6 266.63-6.7L266.63-6.7 270.08-10.8Q271.03-11.9 271.91-12.4 272.78-12.9 274.03-12.9L274.03-12.9ZM307.48-26.55Q308.43-30 310.16-31.75 311.88-33.5 314.93-33.5L314.93-33.5Q317.33-33.5 318.78-31.98 320.23-30.45 320.23-28.2L320.23-28.2Q320.23-27.45 319.98-26.45L319.98-26.45Q319.43-24.25 318.03-23.28 316.63-22.3 314.98-22.3L314.98-22.3Q314.13-22.3 313.45-22.43 312.78-22.55 312.18-22.75L312.18-22.75 309.23-11.9Q307.63-5.95 303.88-2.83 300.13 0.3 293.68 0.3L293.68 0.3Q287.78 0.3 284.5-1.95 281.23-4.2 281.23-8.95L281.23-8.95Q281.23-11.25 282.03-14L282.03-14 285.83-27.45Q286.03-28.1 286.03-28.7L286.03-28.7Q286.03-29.3 285.86-29.68 285.68-30.05 285.38-30.55L285.38-30.55Q284.93-31.2 284.93-31.6L284.93-31.6Q284.93-31.8 285.03-32.1L285.03-32.1Q285.23-32.75 285.93-33.02 286.63-33.3 287.98-33.3L287.98-33.3 299.73-33.3Q301.88-33.3 301.88-32L301.88-32Q301.88-31.7 301.83-31.5L301.83-31.5Q301.68-31.05 301.41-30.78 301.13-30.5 300.58-30.15L300.58-30.15Q299.78-29.7 299.28-29.15 298.78-28.6 298.43-27.45L298.43-27.45 294.08-12.15Q293.63-10.45 293.63-9.25L293.63-9.25Q293.63-5.9 297.23-5.9L297.23-5.9Q299.43-5.9 300.91-7.33 302.38-8.75 303.38-12.2L303.38-12.2 307.48-26.55ZM343.68-33.3Q347.08-33.3 349.6-32.27 352.13-31.25 353.45-29.48 354.78-27.7 354.78-25.4L354.78-25.4Q354.78-24.1 354.43-23L354.43-23Q352.98-17.95 346.08-16.6L346.08-16.6Q348.48-15.9 349.88-14.28 351.28-12.65 351.28-10.25L351.28-10.25Q351.28-9.15 350.88-7.65L350.88-7.65Q349.78-3.75 346.45-1.88 343.13 0 337.03 0L337.03 0 316.23 0Q315.18 0 314.6-0.35 314.03-0.7 314.03-1.3L314.03-1.3Q314.03-1.6 314.18-1.95L314.18-1.95Q314.38-2.5 314.83-2.8 315.28-3.1 315.38-3.15L315.38-3.15Q316.18-3.65 316.68-4.17 317.18-4.7 317.53-5.9L317.53-5.9 323.63-27.45Q323.83-28.1 323.83-28.7L323.83-28.7Q323.83-29.25 323.65-29.63 323.48-30 323.18-30.5L323.18-30.5Q322.73-31.15 322.73-31.55L322.73-31.55Q322.73-31.7 322.83-32.1L322.83-32.1Q323.03-32.75 323.7-33.02 324.38-33.3 325.78-33.3L325.78-33.3 343.68-33.3ZM341.43-24.15Q341.78-25.25 341.78-26.2L341.78-26.2Q341.78-28.8 338.83-28.8L338.83-28.8 336.58-28.8 333.93-19.45 336.13-19.45Q338.23-19.45 339.45-20.48 340.68-21.5 341.43-24.15L341.43-24.15ZM337.78-9.45Q338.13-10.65 338.13-11.65L338.13-11.65Q338.13-14.35 335.03-14.35L335.03-14.35 332.53-14.35 329.68-4.5 332.23-4.5Q334.38-4.5 335.68-5.58 336.98-6.65 337.78-9.45L337.78-9.45Z" opacity="1" transform="matrix(1,0,0,1,0,0)" fill="#000000" class="wordmark-text-0" data-fill-palette-color="primary" id="text-0"></path></svg></g></svg></g></svg></g></svg></g><g><svg viewBox="0 0 43.878346967153874 53.76860007381123" height="53.76860007381123" width="43.878346967153874"><g><svg xmlns="http://www.w3.org/2000/svg" xmlns:xlink="http://www.w3.org/1999/xlink" version="1.1" x="0" y="0" viewBox="18.93400001525879 5.168999671936035 122.13300323486328 149.6619873046875" style="enable-background:new 0 0 160 160;" xml:space="preserve" height="53.76860007381123" width="43.878346967153874" class="icon-icon-0" data-fill-palette-color="accent" id="icon-0"><path d="M98.036 69.992c-0.221 0.174-0.482 0.302-0.774 0.333l-0.496 0.053c-1.55 0.166-2.865 1.229-3.354 2.709l-2.603 7.893c-0.758 2.3-2.318 4.251-4.394 5.495l-6.011 3.604c-1.703 1.021-3.652 1.562-5.638 1.562h-1.496c-1.985 0-3.935-0.54-5.638-1.562l-6.011-3.604c-2.075-1.244-3.636-3.195-4.394-5.494l-2.602-7.893c-0.488-1.479-1.805-2.543-3.357-2.71l-0.49-0.052c-0.684-0.073-1.24-0.598-1.354-1.277l-1.054-6.322c-0.145-0.866 0.157-1.734 0.807-2.324l1.65-1.499c0.04-0.036 0.068-0.08 0.105-0.117 0.096-0.095 0.185-0.194 0.27-0.299 0.058-0.073 0.114-0.146 0.166-0.223 0.07-0.104 0.132-0.212 0.19-0.323 0.044-0.083 0.089-0.165 0.125-0.251 0.049-0.115 0.087-0.234 0.124-0.354 0.027-0.088 0.057-0.175 0.077-0.264 0.027-0.12 0.039-0.243 0.053-0.367 0.011-0.096 0.027-0.19 0.029-0.286 0.001-0.023 0.007-0.044 0.007-0.067l0.109-9.856c0.018-1.584 0.731-3.071 1.958-4.078 1.2-0.986 2.688-1.377 4.193-1.092 10.308 1.927 23.578 0.757 32.7-1.7V32.34c-7.562 2.395-20.836 4.082-31.413 2.103-3.519-0.658-7.137 0.276-9.922 2.563-0.835 0.686-1.566 1.467-2.185 2.323L46.1 34.555c-0.357-1.293-0.184-2.645 0.49-3.805s1.761-1.982 3.061-2.313l3.436-0.875c1.551-0.395 2.636-1.792 2.636-3.392v-0.163c0-6.527 5.311-11.837 11.838-11.837 3.143 0 6.201 0.649 9.092 1.929 6.239 2.764 17.362 6.204 27.539 1.73 0.018 0.768-0.014 1.509-0.087 2.229h7.02c0.192-2.698-0.052-5.583-0.736-8.65-0.258-1.16-1.088-2.11-2.202-2.522-1.113-0.413-2.362-0.232-3.313 0.483C96.43 13.7 85.345 10.293 79.486 7.698c-3.789-1.678-7.802-2.529-11.927-2.529-9.504 0-17.387 7.075-18.658 16.234l-0.979 0.25c-3.137 0.799-5.76 2.782-7.386 5.582s-2.046 6.062-1.184 9.183l5.178 18.751-0.057 0.052c-2.418 2.197-3.542 5.434-3.004 8.656l1.053 6.321c0.542 3.259 2.928 5.879 6.021 6.791l2.038 6.184c0.797 2.414 2.117 4.6 3.842 6.416-9.875 0.001-18.048 7.43-19.226 16.991l-2.774 0.843c-8.068 2.45-13.489 9.762-13.489 18.193v25.715c0 1.933 1.567 3.5 3.5 3.5h103.172c1.933 0 3.5-1.567 3.5-3.5v-25.715c0-8.432-5.421-15.743-13.488-18.193l-2.775-0.843c-1.178-9.562-9.351-16.99-19.226-16.991 1.725-1.816 3.045-4.002 3.842-6.417l2.039-6.183c2.933-0.864 5.21-3.274 5.902-6.301h-3.567C100.496 70.688 99.22 70.434 98.036 69.992zM63.323 102.758v-7.102l0.711 0.426c2.79 1.673 5.984 2.558 9.237 2.558h1.496c3.253 0 6.447-0.885 9.237-2.558l0.711-0.426v7.102c0 0.65 0.189 1.251 0.498 1.773-1.454 4.807-5.92 8.318-11.194 8.318s-9.741-3.511-11.194-8.318C63.134 104.01 63.323 103.408 63.323 102.758zM58.059 106.051c2.098 6.823 8.458 11.799 15.96 11.799 7.502 0 13.862-4.975 15.96-11.799l1.153 0.415c0.728 0.262 1.313 0.823 1.607 1.54 0.284 0.694 0.266 1.44-0.052 2.101-3.438 7.154-10.504 11.599-18.439 11.599-0.079 0-0.153 0.016-0.229 0.023-0.077-0.007-0.151-0.023-0.229-0.023-7.936 0-15.001-4.444-18.439-11.599-0.317-0.66-0.336-1.406-0.052-2.1 0.294-0.718 0.88-1.279 1.608-1.541L58.059 106.051zM92.823 137.768c0 1.002-0.815 1.817-1.818 1.817-1.002 0-1.817-0.815-1.817-1.817 0-1.003 0.815-1.818 1.817-1.818C92.008 135.95 92.823 136.765 92.823 137.768zM58.852 137.768c0 1.002-0.815 1.817-1.817 1.817-1.003 0-1.818-0.815-1.818-1.817 0-1.003 0.815-1.818 1.818-1.818C58.036 135.95 58.852 136.765 58.852 137.768zM105.987 108.961v0.257c0 1.541 1.008 2.901 2.482 3.349l5.112 1.553c5.099 1.549 8.523 6.168 8.523 11.496v22.215H25.934v-22.215c0-5.328 3.425-9.947 8.523-11.496l5.112-1.553c1.475-0.447 2.483-1.808 2.483-3.349v-0.257c0-6.822 5.551-12.373 12.374-12.373h1.897v4.773l-1.109 0.399c-2.058 0.74-3.713 2.326-4.542 4.351-0.815 1.99-0.752 4.236 0.173 6.161 0.996 2.073 2.247 3.955 3.689 5.635v13.523c-2.525 1-4.318 3.461-4.318 6.337 0 3.759 3.059 6.817 6.818 6.817 3.759 0 6.817-3.059 6.817-6.817 0-2.876-1.793-5.337-4.317-6.337v-9.069c4.112 2.78 9.028 4.343 14.256 4.343 0.079 0 0.153-0.016 0.229-0.023 0.077 0.007 0.151 0.023 0.229 0.023 5.228 0 10.144-1.563 14.256-4.343v9.069c-2.524 1-4.317 3.461-4.317 6.337 0 3.759 3.059 6.817 6.817 6.817 3.76 0 6.818-3.059 6.818-6.817 0-2.877-1.793-5.337-4.318-6.337v-13.523c1.443-1.68 2.693-3.562 3.689-5.635 0.925-1.925 0.988-4.17 0.173-6.161-0.829-2.024-2.484-3.61-4.541-4.351l-1.11-0.4v-4.772h1.898C100.437 96.588 105.987 102.139 105.987 108.961z" fill="#000000" data-fill-palette-color="accent"></path><path d="M132.672 20.559h-30.84c-4.629 0-8.395 3.766-8.395 8.395v30.839c0 4.629 3.766 8.395 8.395 8.395h6.6v11.024c0 1.02 0.619 1.938 1.565 2.318 0.303 0.122 0.62 0.182 0.934 0.182 0.667 0 1.321-0.267 1.803-0.767l12.276-12.757h7.662c4.629 0 8.395-3.766 8.395-8.395V28.954C141.066 24.325 137.301 20.559 132.672 20.559zM136.066 59.793c0 1.872-1.522 3.395-3.395 3.395h-8.726c-0.68 0-1.33 0.277-1.802 0.767l-8.713 9.054v-7.321c0-1.381-1.119-2.5-2.5-2.5h-9.1c-1.872 0-3.395-1.523-3.395-3.395V28.954c0-1.872 1.522-3.395 3.395-3.395h30.84c1.872 0 3.395 1.523 3.395 3.395V59.793z" fill="#000000" data-fill-palette-color="accent"></path><path d="M110.426 40.456c1.062-0.882 1.208-2.458 0.325-3.521-0.883-1.064-2.461-1.208-3.521-0.325l-6.47 5.375c-0.571 0.475-0.902 1.18-0.902 1.923s0.331 1.448 0.902 1.923l6.47 5.375c0.467 0.388 1.033 0.577 1.597 0.577 0.717 0 1.43-0.307 1.924-0.902 0.883-1.062 0.736-2.638-0.325-3.521l-4.155-3.452L110.426 40.456z" fill="#000000" data-fill-palette-color="accent"></path><path d="M126.551 36.61c-1.061-0.881-2.638-0.738-3.521 0.325-0.883 1.062-0.736 2.638 0.325 3.521l4.155 3.452-4.155 3.452c-1.062 0.882-1.208 2.458-0.325 3.521 0.494 0.595 1.207 0.902 1.924 0.902 0.563 0 1.13-0.189 1.597-0.577l6.47-5.375c0.571-0.475 0.902-1.18 0.902-1.923s-0.331-1.448-0.902-1.923L126.551 36.61z" fill="#000000" data-fill-palette-color="accent"></path><path d="M120.032 34.517c-1.308-0.439-2.726 0.269-3.164 1.577l-4.698 14.042c-0.438 1.31 0.269 2.726 1.578 3.164 0.263 0.088 0.53 0.13 0.793 0.13 1.046 0 2.021-0.661 2.371-1.707l4.698-14.042C122.048 36.371 121.342 34.955 120.032 34.517z" fill="#000000" data-fill-palette-color="accent"></path></svg></g></svg></g></svg></g><defs></defs></svg><rect width="395.52" height="46.1036889601247" fill="none" stroke="none" visibility="hidden"></rect></g></svg></g></svg>