<svg xmlns="http://www.w3.org/2000/svg" version="1.1" xmlns:xlink="http://www.w3.org/1999/xlink" xmlns:svgjs="http://svgjs.dev/svgjs" width="128" height="128" viewBox="0 0 128 128"><g transform="matrix(0.8046875,0,0,0.8046875,12.445935106208573,1.9524738898026257)"><svg viewBox="0 0 78 95" data-background-color="#50a060" preserveAspectRatio="xMidYMid meet" height="155" width="128" xmlns="http://www.w3.org/2000/svg" xmlns:xlink="http://www.w3.org/1999/xlink"><g id="tight-bounds" transform="matrix(1,0,0,1,0.040942346754675896,-0.24049999999999727)"><svg viewBox="0 0 77.91811530649063 95.481" height="95.481" width="77.91811530649063"><g><svg viewBox="0 0 77.91811530649063 95.481" height="95.481" width="77.91811530649063"><g><svg viewBox="0 0 77.91811530649063 95.481" height="95.481" width="77.91811530649063"><g id="textblocktransform"><svg viewBox="0 0 77.91811530649063 95.481" height="95.481" width="77.91811530649063" id="textblock"><g><svg viewBox="0 0 77.91811530649063 95.481" height="95.481" width="77.91811530649063"><g><svg viewBox="0 0 77.91811530649063 95.481" height="95.481" width="77.91811530649063"><g><svg xmlns="http://www.w3.org/2000/svg" xmlns:xlink="http://www.w3.org/1999/xlink" version="1.1" x="0" y="0" viewBox="18.933999999999987 5.1690000000000005 122.133 149.66199999999998" style="enable-background:new 0 0 160 160;" xml:space="preserve" height="95.481" width="77.91811530649063" class="icon-icon-0" data-fill-palette-color="accent" id="icon-0"><path d="M98.036 69.992c-0.221 0.174-0.482 0.302-0.774 0.333l-0.496 0.053c-1.55 0.166-2.865 1.229-3.354 2.709l-2.603 7.893c-0.758 2.3-2.318 4.251-4.394 5.495l-6.011 3.604c-1.703 1.021-3.652 1.562-5.638 1.562h-1.496c-1.985 0-3.935-0.54-5.638-1.562l-6.011-3.604c-2.075-1.244-3.636-3.195-4.394-5.494l-2.602-7.893c-0.488-1.479-1.805-2.543-3.357-2.71l-0.49-0.052c-0.684-0.073-1.24-0.598-1.354-1.277l-1.054-6.322c-0.145-0.866 0.157-1.734 0.807-2.324l1.65-1.499c0.04-0.036 0.068-0.08 0.105-0.117 0.096-0.095 0.185-0.194 0.27-0.299 0.058-0.073 0.114-0.146 0.166-0.223 0.07-0.104 0.132-0.212 0.19-0.323 0.044-0.083 0.089-0.165 0.125-0.251 0.049-0.115 0.087-0.234 0.124-0.354 0.027-0.088 0.057-0.175 0.077-0.264 0.027-0.12 0.039-0.243 0.053-0.367 0.011-0.096 0.027-0.19 0.029-0.286 0.001-0.023 0.007-0.044 0.007-0.067l0.109-9.856c0.018-1.584 0.731-3.071 1.958-4.078 1.2-0.986 2.688-1.377 4.193-1.092 10.308 1.927 23.578 0.757 32.7-1.7V32.34c-7.562 2.395-20.836 4.082-31.413 2.103-3.519-0.658-7.137 0.276-9.922 2.563-0.835 0.686-1.566 1.467-2.185 2.323L46.1 34.555c-0.357-1.293-0.184-2.645 0.49-3.805s1.761-1.982 3.061-2.313l3.436-0.875c1.551-0.395 2.636-1.792 2.636-3.392v-0.163c0-6.527 5.311-11.837 11.838-11.837 3.143 0 6.201 0.649 9.092 1.929 6.239 2.764 17.362 6.204 27.539 1.73 0.018 0.768-0.014 1.509-0.087 2.229h7.02c0.192-2.698-0.052-5.583-0.736-8.65-0.258-1.16-1.088-2.11-2.202-2.522-1.113-0.413-2.362-0.232-3.313 0.483C96.43 13.7 85.345 10.293 79.486 7.698c-3.789-1.678-7.802-2.529-11.927-2.529-9.504 0-17.387 7.075-18.658 16.234l-0.979 0.25c-3.137 0.799-5.76 2.782-7.386 5.582s-2.046 6.062-1.184 9.183l5.178 18.751-0.057 0.052c-2.418 2.197-3.542 5.434-3.004 8.656l1.053 6.321c0.542 3.259 2.928 5.879 6.021 6.791l2.038 6.184c0.797 2.414 2.117 4.6 3.842 6.416-9.875 0.001-18.048 7.43-19.226 16.991l-2.774 0.843c-8.068 2.45-13.489 9.762-13.489 18.193v25.715c0 1.933 1.567 3.5 3.5 3.5h103.172c1.933 0 3.5-1.567 3.5-3.5v-25.715c0-8.432-5.421-15.743-13.488-18.193l-2.775-0.843c-1.178-9.562-9.351-16.99-19.226-16.991 1.725-1.816 3.045-4.002 3.842-6.417l2.039-6.183c2.933-0.864 5.21-3.274 5.902-6.301h-3.567C100.496 70.688 99.22 70.434 98.036 69.992zM63.323 102.758v-7.102l0.711 0.426c2.79 1.673 5.984 2.558 9.237 2.558h1.496c3.253 0 6.447-0.885 9.237-2.558l0.711-0.426v7.102c0 0.65 0.189 1.251 0.498 1.773-1.454 4.807-5.92 8.318-11.194 8.318s-9.741-3.511-11.194-8.318C63.134 104.01 63.323 103.408 63.323 102.758zM58.059 106.051c2.098 6.823 8.458 11.799 15.96 11.799 7.502 0 13.862-4.975 15.96-11.799l1.153 0.415c0.728 0.262 1.313 0.823 1.607 1.54 0.284 0.694 0.266 1.44-0.052 2.101-3.438 7.154-10.504 11.599-18.439 11.599-0.079 0-0.153 0.016-0.229 0.023-0.077-0.007-0.151-0.023-0.229-0.023-7.936 0-15.001-4.444-18.439-11.599-0.317-0.66-0.336-1.406-0.052-2.1 0.294-0.718 0.88-1.279 1.608-1.541L58.059 106.051zM92.823 137.768c0 1.002-0.815 1.817-1.818 1.817-1.002 0-1.817-0.815-1.817-1.817 0-1.003 0.815-1.818 1.817-1.818C92.008 135.95 92.823 136.765 92.823 137.768zM58.852 137.768c0 1.002-0.815 1.817-1.817 1.817-1.003 0-1.818-0.815-1.818-1.817 0-1.003 0.815-1.818 1.818-1.818C58.036 135.95 58.852 136.765 58.852 137.768zM105.987 108.961v0.257c0 1.541 1.008 2.901 2.482 3.349l5.112 1.553c5.099 1.549 8.523 6.168 8.523 11.496v22.215H25.934v-22.215c0-5.328 3.425-9.947 8.523-11.496l5.112-1.553c1.475-0.447 2.483-1.808 2.483-3.349v-0.257c0-6.822 5.551-12.373 12.374-12.373h1.897v4.773l-1.109 0.399c-2.058 0.74-3.713 2.326-4.542 4.351-0.815 1.99-0.752 4.236 0.173 6.161 0.996 2.073 2.247 3.955 3.689 5.635v13.523c-2.525 1-4.318 3.461-4.318 6.337 0 3.759 3.059 6.817 6.818 6.817 3.759 0 6.817-3.059 6.817-6.817 0-2.876-1.793-5.337-4.317-6.337v-9.069c4.112 2.78 9.028 4.343 14.256 4.343 0.079 0 0.153-0.016 0.229-0.023 0.077 0.007 0.151 0.023 0.229 0.023 5.228 0 10.144-1.563 14.256-4.343v9.069c-2.524 1-4.317 3.461-4.317 6.337 0 3.759 3.059 6.817 6.817 6.817 3.76 0 6.818-3.059 6.818-6.817 0-2.877-1.793-5.337-4.318-6.337v-13.523c1.443-1.68 2.693-3.562 3.689-5.635 0.925-1.925 0.988-4.17 0.173-6.161-0.829-2.024-2.484-3.61-4.541-4.351l-1.11-0.4v-4.772h1.898C100.437 96.588 105.987 102.139 105.987 108.961z" fill="#000000" data-fill-palette-color="accent"></path><path d="M132.672 20.559h-30.84c-4.629 0-8.395 3.766-8.395 8.395v30.839c0 4.629 3.766 8.395 8.395 8.395h6.6v11.024c0 1.02 0.619 1.938 1.565 2.318 0.303 0.122 0.62 0.182 0.934 0.182 0.667 0 1.321-0.267 1.803-0.767l12.276-12.757h7.662c4.629 0 8.395-3.766 8.395-8.395V28.954C141.066 24.325 137.301 20.559 132.672 20.559zM136.066 59.793c0 1.872-1.522 3.395-3.395 3.395h-8.726c-0.68 0-1.33 0.277-1.802 0.767l-8.713 9.054v-7.321c0-1.381-1.119-2.5-2.5-2.5h-9.1c-1.872 0-3.395-1.523-3.395-3.395V28.954c0-1.872 1.522-3.395 3.395-3.395h30.84c1.872 0 3.395 1.523 3.395 3.395V59.793z" fill="#000000" data-fill-palette-color="accent"></path><path d="M110.426 40.456c1.062-0.882 1.208-2.458 0.325-3.521-0.883-1.064-2.461-1.208-3.521-0.325l-6.47 5.375c-0.571 0.475-0.902 1.18-0.902 1.923s0.331 1.448 0.902 1.923l6.47 5.375c0.467 0.388 1.033 0.577 1.597 0.577 0.717 0 1.43-0.307 1.924-0.902 0.883-1.062 0.736-2.638-0.325-3.521l-4.155-3.452L110.426 40.456z" fill="#000000" data-fill-palette-color="accent"></path><path d="M126.551 36.61c-1.061-0.881-2.638-0.738-3.521 0.325-0.883 1.062-0.736 2.638 0.325 3.521l4.155 3.452-4.155 3.452c-1.062 0.882-1.208 2.458-0.325 3.521 0.494 0.595 1.207 0.902 1.924 0.902 0.563 0 1.13-0.189 1.597-0.577l6.47-5.375c0.571-0.475 0.902-1.18 0.902-1.923s-0.331-1.448-0.902-1.923L126.551 36.61z" fill="#000000" data-fill-palette-color="accent"></path><path d="M120.032 34.517c-1.308-0.439-2.726 0.269-3.164 1.577l-4.698 14.042c-0.438 1.31 0.269 2.726 1.578 3.164 0.263 0.088 0.53 0.13 0.793 0.13 1.046 0 2.021-0.661 2.371-1.707l4.698-14.042C122.048 36.371 121.342 34.955 120.032 34.517z" fill="#000000" data-fill-palette-color="accent"></path></svg></g></svg></g></svg></g></svg></g></svg></g></svg></g><defs></defs></svg><rect width="77.91811530649063" height="95.481" fill="none" stroke="none" visibility="hidden"></rect></g></svg></g></svg>